<svg width="29" height="29" viewBox="0 0 29 29" fill="none" xmlns="http://www.w3.org/2000/svg">
<path fill-rule="evenodd" clip-rule="evenodd" d="M20.1488 7.83363C18.6667 6.42006 16.6887 5.64998 14.6422 5.68163C10.8973 5.68163 7.71677 8.2081 6.58274 11.6101V11.6102C5.98144 13.393 5.98144 15.3235 6.58274 17.1063H6.588C7.7273 20.503 10.9026 23.0295 14.6475 23.0295C16.5806 23.0295 18.2402 22.5351 19.5264 21.6617V21.6582C21.0402 20.656 22.074 19.079 22.3958 17.2962H14.6422V11.7685H28.1819C28.3507 12.7284 28.4298 13.7095 28.4298 14.6853C28.4298 19.0513 26.8695 22.7426 24.1546 25.2427L24.1574 25.2448C21.7786 27.439 18.5137 28.7102 14.6422 28.7102C9.21471 28.7102 4.25139 25.651 1.81456 20.8037V20.8037C-0.221394 16.7476 -0.221389 11.9689 1.81457 7.91278H1.8146L1.81456 7.91275C4.25139 3.06019 9.21471 0.00096734 14.6422 0.00096734C18.2078 -0.0412288 21.652 1.2985 24.2471 3.73533L20.1488 7.83363Z" fill="#EB5757"/>
</svg>
