<svg width="29" height="25" viewBox="0 0 29 25" fill="none" xmlns="http://www.w3.org/2000/svg">
<path d="M9.03163 24.0185C19.8626 24.0185 25.7884 15.0429 25.7884 7.26174C25.7884 7.00941 25.7828 6.75148 25.7716 6.49915C26.9243 5.66551 27.9191 4.63293 28.7092 3.44992C27.6356 3.92757 26.4958 4.23952 25.3286 4.37512C26.5576 3.63846 27.4778 2.48119 27.9186 1.11786C26.7624 1.80304 25.4981 2.28638 24.1797 2.54715C23.2914 1.60327 22.1168 0.978317 20.8377 0.768901C19.5586 0.559485 18.2461 0.777274 17.1032 1.3886C15.9603 1.99992 15.0506 2.97072 14.5147 4.15092C13.9789 5.33112 13.8467 6.65497 14.1387 7.91779C11.7977 7.80031 9.50746 7.19217 7.41653 6.1328C5.32559 5.07342 3.48063 3.58645 2.00123 1.7683C1.24933 3.06467 1.01924 4.5987 1.35774 6.05862C1.69624 7.51854 2.57792 8.7948 3.8236 9.62801C2.88842 9.59832 1.97373 9.34653 1.1551 8.89346V8.96635C1.15426 10.3268 1.62458 11.6456 2.48611 12.6984C3.34764 13.7513 4.54721 14.4734 5.8809 14.7418C5.01461 14.9789 4.1054 15.0134 3.22362 14.8428C3.59996 16.0128 4.33219 17.0361 5.31811 17.7699C6.30403 18.5037 7.49445 18.9114 8.72323 18.9361C6.63712 20.5747 4.06017 21.4636 1.40742 21.4593C0.936982 21.4586 0.467002 21.4298 0 21.373C2.69491 23.1019 5.8298 24.0202 9.03163 24.0185Z" fill="#EB5757"/>
</svg>
