<svg width="29" height="29" viewBox="0 0 29 29" fill="none" xmlns="http://www.w3.org/2000/svg">
<g clip-path="url(#clip0_3929_455)">
<path d="M14.3546 2.58495C18.19 2.58495 18.6442 2.60177 20.1525 2.66906C21.5543 2.73074 22.3113 2.96625 22.816 3.1625C23.4832 3.42043 23.9655 3.73444 24.4645 4.23349C24.9692 4.73814 25.2776 5.21476 25.5355 5.88203C25.7318 6.38668 25.9673 7.14927 26.0289 8.54548C26.0962 10.0594 26.1131 10.5136 26.1131 14.3434C26.1131 18.1788 26.0962 18.633 26.0289 20.1413C25.9673 21.5431 25.7318 22.3001 25.5355 22.8048C25.2776 23.472 24.9636 23.9543 24.4645 24.4533C23.9599 24.958 23.4832 25.2664 22.816 25.5243C22.3113 25.7205 21.5487 25.9561 20.1525 26.0177C18.6386 26.085 18.1844 26.1018 14.3546 26.1018C10.5192 26.1018 10.0651 26.085 8.55669 26.0177C7.15488 25.9561 6.3979 25.7205 5.89324 25.5243C5.22598 25.2664 4.74375 24.9524 4.2447 24.4533C3.74005 23.9487 3.43165 23.472 3.17371 22.8048C2.97746 22.3001 2.74196 21.5375 2.68028 20.1413C2.61299 18.6274 2.59617 18.1732 2.59617 14.3434C2.59617 10.508 2.61299 10.0538 2.68028 8.54548C2.74196 7.14366 2.97746 6.38668 3.17371 5.88203C3.43165 5.21476 3.74566 4.73254 4.2447 4.23349C4.74936 3.72883 5.22598 3.42043 5.89324 3.1625C6.3979 2.96625 7.16048 2.73074 8.55669 2.66906C10.0651 2.60177 10.5192 2.58495 14.3546 2.58495ZM14.3546 0C10.4576 0 9.96973 0.0168218 8.43894 0.084109C6.91376 0.151396 5.8652 0.398116 4.95683 0.751374C4.0092 1.12145 3.20736 1.60929 2.41113 2.41113C1.60929 3.20736 1.12145 4.0092 0.751374 4.95122C0.398116 5.8652 0.151396 6.90816 0.0841091 8.43333C0.0168218 9.96973 0 10.4576 0 14.3546C0 18.2517 0.0168218 18.7395 0.0841091 20.2703C0.151396 21.7955 0.398116 22.844 0.751374 23.7524C1.12145 24.7 1.60929 25.5019 2.41113 26.2981C3.20736 27.0943 4.0092 27.5878 4.95122 27.9522C5.8652 28.3055 6.90816 28.5522 8.43333 28.6195C9.96412 28.6868 10.452 28.7036 14.349 28.7036C18.2461 28.7036 18.7339 28.6868 20.2647 28.6195C21.7899 28.5522 22.8384 28.3055 23.7468 27.9522C24.6888 27.5878 25.4906 27.0943 26.2869 26.2981C27.0831 25.5019 27.5766 24.7 27.941 23.758C28.2943 22.844 28.541 21.8011 28.6083 20.2759C28.6756 18.7451 28.6924 18.2573 28.6924 14.3602C28.6924 10.4632 28.6756 9.97533 28.6083 8.44455C28.541 6.91937 28.2943 5.87081 27.941 4.96243C27.5878 4.0092 27.0999 3.20736 26.2981 2.41113C25.5019 1.61489 24.7 1.12145 23.758 0.756981C22.844 0.403723 21.8011 0.157004 20.2759 0.0897163C18.7395 0.0168218 18.2517 0 14.3546 0Z" fill="#EB5757"/>
<path d="M14.3545 6.98047C10.2836 6.98047 6.98096 10.2832 6.98096 14.354C6.98096 18.4249 10.2836 21.7276 14.3545 21.7276C18.4254 21.7276 21.7281 18.4249 21.7281 14.354C21.7281 10.2832 18.4254 6.98047 14.3545 6.98047ZM14.3545 19.137C11.7135 19.137 9.57152 16.9951 9.57152 14.354C9.57152 11.713 11.7135 9.57103 14.3545 9.57103C16.9955 9.57103 19.1375 11.713 19.1375 14.354C19.1375 16.9951 16.9955 19.137 14.3545 19.137Z" fill="#EB5757"/>
<path d="M23.7412 6.69018C23.7412 7.64342 22.9674 8.41162 22.0198 8.41162C21.0665 8.41162 20.2983 7.63781 20.2983 6.69018C20.2983 5.73695 21.0721 4.96875 22.0198 4.96875C22.9674 4.96875 23.7412 5.74255 23.7412 6.69018Z" fill="#EB5757"/>
</g>
<defs>
<clipPath id="clip0_3929_455">
<rect width="28.7092" height="28.7092" fill="white"/>
</clipPath>
</defs>
</svg>
