<svg width="29" height="21" viewBox="0 0 29 21" fill="none" xmlns="http://www.w3.org/2000/svg">
<path d="M28.4232 4.61075C28.4232 4.61075 28.1429 2.63139 27.2794 1.76226C26.1859 0.618379 24.9636 0.612771 24.4028 0.545484C20.388 0.253906 14.3602 0.253906 14.3602 0.253906H14.349C14.349 0.253906 8.32119 0.253906 4.30638 0.545484C3.74566 0.612771 2.52327 0.618379 1.42985 1.76226C0.566334 2.63139 0.291578 4.61075 0.291578 4.61075C0.291578 4.61075 0 6.93777 0 9.25918V11.4348C0 13.7562 0.285971 16.0832 0.285971 16.0832C0.285971 16.0832 0.566334 18.0626 1.42425 18.9317C2.51766 20.0756 3.95312 20.0364 4.59235 20.1597C6.89133 20.3784 14.3546 20.4457 14.3546 20.4457C14.3546 20.4457 20.388 20.4345 24.4028 20.1485C24.9636 20.0812 26.1859 20.0756 27.2794 18.9317C28.1429 18.0626 28.4232 16.0832 28.4232 16.0832C28.4232 16.0832 28.7092 13.7618 28.7092 11.4348V9.25918C28.7092 6.93777 28.4232 4.61075 28.4232 4.61075ZM11.3884 14.0758V6.00696L19.1432 10.0554L11.3884 14.0758Z" fill="#EB5757"/>
</svg>
