<svg width="37" height="40" viewBox="0 0 37 40" fill="none" xmlns="http://www.w3.org/2000/svg">
<path d="M35.4688 11.4344C35.3675 9.8691 34.8198 8.43896 33.9578 7.26008M8.81793 4.85962C9.68829 3.55462 10.8777 2.58992 12.2136 2M8.13313 33.7778L7.17579 32.6886C5.8472 31.1768 4.80448 29.436 4.09845 27.5513L2.19599 22.4728C1.72492 21.2153 2.12255 19.7976 3.17884 18.9684C4.76316 17.7248 7.09508 18.3108 7.90331 20.1556L9.51002 23.8231C10.714 24.1458 13.4746 25.4016 14.8849 27.8442M9.5117 23.8193L13.5444 8.76918C13.9898 7.10678 15.6986 6.12024 17.3609 6.56568C19.0233 7.01112 20.0099 8.71985 19.5644 10.3822L17.1448 19.4123L20.5323 6.7702C20.9777 5.1078 22.6864 4.12127 24.3488 4.56671C26.0112 5.01215 26.9977 6.72088 26.5523 8.38328L22.8423 22.2294L24.9393 14.4033C25.3847 12.7409 27.0934 11.7544 28.7558 12.1998C30.4182 12.6453 31.4047 14.354 30.9594 16.0164L26.2297 33.6676C25.8497 35.0858 24.9219 36.2949 23.6504 37.0292L22.5829 37.6453" stroke="#3D3C3C" stroke-width="3" stroke-linecap="round" stroke-linejoin="round"/>
</svg>
