<svg width="293" height="201" viewBox="0 0 293 201" fill="none" xmlns="http://www.w3.org/2000/svg">
<g filter="url(#filter0_d_1844_352)">
<rect x="17" y="13" width="259" height="167" rx="17" fill="white"/>
</g>
<rect x="21.5" y="34.5" width="250" height="107.698" stroke="#CECECE"/>
<line y1="-0.5" x2="272.725" y2="-0.5" transform="matrix(0.920342 -0.391115 0.38077 0.92467 21 141.683)" stroke="#CECECE"/>
<line y1="-0.5" x2="273.526" y2="-0.5" transform="matrix(0.917647 0.397397 -0.386946 0.922103 21 34)" stroke="#CECECE"/>
<rect x="107" y="57" width="76" height="66" fill="white"/>
<path d="M19.9996 149L271 44L270.614 43.0774L19.6137 148.077L19.9996 149ZM19.9996 43L271 150L271.392 149.08L20.3917 42.0801L19.9996 43Z" fill="#7BDB97" fill-opacity="0.07"/>
<g filter="url(#filter1_d_1844_352)">
<rect x="80" y="97" width="133" height="7" fill="#CECECE"/>
</g>
<g filter="url(#filter2_d_1844_352)">
<rect x="68" y="74" width="156" height="13" fill="#CECECE"/>
</g>
<rect x="136" y="127" width="22" height="10" rx="5" fill="#C4C4C4"/>
<defs>
<filter id="filter0_d_1844_352" x="0" y="0" width="293" height="201" filterUnits="userSpaceOnUse" color-interpolation-filters="sRGB">
<feFlood flood-opacity="0" result="BackgroundImageFix"/>
<feColorMatrix in="SourceAlpha" type="matrix" values="0 0 0 0 0 0 0 0 0 0 0 0 0 0 0 0 0 0 127 0" result="hardAlpha"/>
<feOffset dy="4"/>
<feGaussianBlur stdDeviation="8.5"/>
<feComposite in2="hardAlpha" operator="out"/>
<feColorMatrix type="matrix" values="0 0 0 0 0 0 0 0 0 0 0 0 0 0 0 0 0 0 0.25 0"/>
<feBlend mode="normal" in2="BackgroundImageFix" result="effect1_dropShadow_1844_352"/>
<feBlend mode="normal" in="SourceGraphic" in2="effect1_dropShadow_1844_352" result="shape"/>
</filter>
<filter id="filter1_d_1844_352" x="61" y="82" width="171" height="45" filterUnits="userSpaceOnUse" color-interpolation-filters="sRGB">
<feFlood flood-opacity="0" result="BackgroundImageFix"/>
<feColorMatrix in="SourceAlpha" type="matrix" values="0 0 0 0 0 0 0 0 0 0 0 0 0 0 0 0 0 0 127 0" result="hardAlpha"/>
<feOffset dy="4"/>
<feGaussianBlur stdDeviation="9.5"/>
<feComposite in2="hardAlpha" operator="out"/>
<feColorMatrix type="matrix" values="0 0 0 0 0 0 0 0 0 0 0 0 0 0 0 0 0 0 0.07 0"/>
<feBlend mode="normal" in2="BackgroundImageFix" result="effect1_dropShadow_1844_352"/>
<feBlend mode="normal" in="SourceGraphic" in2="effect1_dropShadow_1844_352" result="shape"/>
</filter>
<filter id="filter2_d_1844_352" x="49" y="59" width="194" height="51" filterUnits="userSpaceOnUse" color-interpolation-filters="sRGB">
<feFlood flood-opacity="0" result="BackgroundImageFix"/>
<feColorMatrix in="SourceAlpha" type="matrix" values="0 0 0 0 0 0 0 0 0 0 0 0 0 0 0 0 0 0 127 0" result="hardAlpha"/>
<feOffset dy="4"/>
<feGaussianBlur stdDeviation="9.5"/>
<feComposite in2="hardAlpha" operator="out"/>
<feColorMatrix type="matrix" values="0 0 0 0 0 0 0 0 0 0 0 0 0 0 0 0 0 0 0.07 0"/>
<feBlend mode="normal" in2="BackgroundImageFix" result="effect1_dropShadow_1844_352"/>
<feBlend mode="normal" in="SourceGraphic" in2="effect1_dropShadow_1844_352" result="shape"/>
</filter>
</defs>
</svg>
