<svg width="293" height="201" viewBox="0 0 293 201" fill="none" xmlns="http://www.w3.org/2000/svg">
<g filter="url(#filter0_d_1946_142)">
<rect x="17" y="13" width="259" height="167" rx="17" fill="#CECECE"/>
</g>
<rect x="17" y="13" width="259" height="165" rx="17" fill="white"/>
<path d="M141.933 54.7578V64H139.705V54.7578H141.933ZM145.525 58.6045V60.3184H141.298V58.6045H145.525ZM145.887 54.7578V56.478H141.298V54.7578H145.887ZM149.512 56.7002L147.258 64H144.865L148.261 54.7578H149.778L149.512 56.7002ZM151.378 64L149.118 56.7002L148.826 54.7578H150.362L153.777 64H151.378ZM151.289 60.5532V62.2734H146.547V60.5532H151.289ZM159.471 62.4766L162.048 64.5205L160.665 65.6885L158.132 63.6445L159.471 62.4766ZM162.156 59.1948V59.5693C162.156 60.276 162.057 60.9108 161.858 61.4736C161.663 62.0322 161.384 62.5104 161.02 62.9082C160.66 63.3018 160.235 63.6043 159.744 63.8159C159.253 64.0233 158.712 64.127 158.119 64.127C157.522 64.127 156.977 64.0233 156.481 63.8159C155.991 63.6043 155.563 63.3018 155.199 62.9082C154.84 62.5104 154.56 62.0322 154.361 61.4736C154.167 60.9108 154.069 60.276 154.069 59.5693V59.1948C154.069 58.4881 154.167 57.8534 154.361 57.2905C154.56 56.7277 154.837 56.2495 155.193 55.856C155.553 55.4582 155.978 55.1556 156.469 54.9482C156.964 54.7367 157.51 54.6309 158.106 54.6309C158.699 54.6309 159.241 54.7367 159.731 54.9482C160.227 55.1556 160.654 55.4582 161.014 55.856C161.378 56.2495 161.659 56.7277 161.858 57.2905C162.057 57.8534 162.156 58.4881 162.156 59.1948ZM159.89 59.5693V59.1821C159.89 58.7251 159.85 58.3231 159.77 57.9761C159.693 57.6248 159.579 57.3307 159.427 57.0938C159.274 56.8568 159.086 56.679 158.862 56.5605C158.642 56.4378 158.39 56.3765 158.106 56.3765C157.81 56.3765 157.552 56.4378 157.332 56.5605C157.112 56.679 156.928 56.8568 156.78 57.0938C156.632 57.3307 156.52 57.6248 156.443 57.9761C156.371 58.3231 156.335 58.7251 156.335 59.1821V59.5693C156.335 60.0221 156.371 60.4242 156.443 60.7754C156.52 61.1224 156.632 61.4165 156.78 61.6577C156.932 61.8989 157.118 62.0809 157.338 62.2036C157.563 62.3263 157.823 62.3877 158.119 62.3877C158.403 62.3877 158.654 62.3263 158.875 62.2036C159.095 62.0809 159.279 61.8989 159.427 61.6577C159.579 61.4165 159.693 61.1224 159.77 60.7754C159.85 60.4242 159.89 60.0221 159.89 59.5693Z" fill="#CECECE"/>
<g filter="url(#filter1_d_1946_142)">
<rect x="106" y="89" width="90" height="13" fill="#CECECE"/>
</g>
<g filter="url(#filter2_d_1946_142)">
<rect x="106" y="105" width="90" height="13" fill="#CECECE"/>
</g>
<g filter="url(#filter3_d_1946_142)">
<rect x="106" y="73" width="90" height="13" fill="#CECECE"/>
</g>
<g filter="url(#filter4_d_1946_142)">
<rect x="106" y="121" width="90" height="13" fill="#CECECE"/>
</g>
<rect x="90.25" y="35.25" width="119.5" height="122.5" rx="5.75" stroke="#CECECE" stroke-width="0.5"/>
<defs>
<filter id="filter0_d_1946_142" x="0" y="0" width="293" height="201" filterUnits="userSpaceOnUse" color-interpolation-filters="sRGB">
<feFlood flood-opacity="0" result="BackgroundImageFix"/>
<feColorMatrix in="SourceAlpha" type="matrix" values="0 0 0 0 0 0 0 0 0 0 0 0 0 0 0 0 0 0 127 0" result="hardAlpha"/>
<feOffset dy="4"/>
<feGaussianBlur stdDeviation="8.5"/>
<feComposite in2="hardAlpha" operator="out"/>
<feColorMatrix type="matrix" values="0 0 0 0 0 0 0 0 0 0 0 0 0 0 0 0 0 0 0.25 0"/>
<feBlend mode="normal" in2="BackgroundImageFix" result="effect1_dropShadow_1946_142"/>
<feBlend mode="normal" in="SourceGraphic" in2="effect1_dropShadow_1946_142" result="shape"/>
</filter>
<filter id="filter1_d_1946_142" x="87" y="74" width="128" height="51" filterUnits="userSpaceOnUse" color-interpolation-filters="sRGB">
<feFlood flood-opacity="0" result="BackgroundImageFix"/>
<feColorMatrix in="SourceAlpha" type="matrix" values="0 0 0 0 0 0 0 0 0 0 0 0 0 0 0 0 0 0 127 0" result="hardAlpha"/>
<feOffset dy="4"/>
<feGaussianBlur stdDeviation="9.5"/>
<feComposite in2="hardAlpha" operator="out"/>
<feColorMatrix type="matrix" values="0 0 0 0 0 0 0 0 0 0 0 0 0 0 0 0 0 0 0.07 0"/>
<feBlend mode="normal" in2="BackgroundImageFix" result="effect1_dropShadow_1946_142"/>
<feBlend mode="normal" in="SourceGraphic" in2="effect1_dropShadow_1946_142" result="shape"/>
</filter>
<filter id="filter2_d_1946_142" x="87" y="90" width="128" height="51" filterUnits="userSpaceOnUse" color-interpolation-filters="sRGB">
<feFlood flood-opacity="0" result="BackgroundImageFix"/>
<feColorMatrix in="SourceAlpha" type="matrix" values="0 0 0 0 0 0 0 0 0 0 0 0 0 0 0 0 0 0 127 0" result="hardAlpha"/>
<feOffset dy="4"/>
<feGaussianBlur stdDeviation="9.5"/>
<feComposite in2="hardAlpha" operator="out"/>
<feColorMatrix type="matrix" values="0 0 0 0 0 0 0 0 0 0 0 0 0 0 0 0 0 0 0.07 0"/>
<feBlend mode="normal" in2="BackgroundImageFix" result="effect1_dropShadow_1946_142"/>
<feBlend mode="normal" in="SourceGraphic" in2="effect1_dropShadow_1946_142" result="shape"/>
</filter>
<filter id="filter3_d_1946_142" x="87" y="58" width="128" height="51" filterUnits="userSpaceOnUse" color-interpolation-filters="sRGB">
<feFlood flood-opacity="0" result="BackgroundImageFix"/>
<feColorMatrix in="SourceAlpha" type="matrix" values="0 0 0 0 0 0 0 0 0 0 0 0 0 0 0 0 0 0 127 0" result="hardAlpha"/>
<feOffset dy="4"/>
<feGaussianBlur stdDeviation="9.5"/>
<feComposite in2="hardAlpha" operator="out"/>
<feColorMatrix type="matrix" values="0 0 0 0 0 0 0 0 0 0 0 0 0 0 0 0 0 0 0.07 0"/>
<feBlend mode="normal" in2="BackgroundImageFix" result="effect1_dropShadow_1946_142"/>
<feBlend mode="normal" in="SourceGraphic" in2="effect1_dropShadow_1946_142" result="shape"/>
</filter>
<filter id="filter4_d_1946_142" x="87" y="106" width="128" height="51" filterUnits="userSpaceOnUse" color-interpolation-filters="sRGB">
<feFlood flood-opacity="0" result="BackgroundImageFix"/>
<feColorMatrix in="SourceAlpha" type="matrix" values="0 0 0 0 0 0 0 0 0 0 0 0 0 0 0 0 0 0 127 0" result="hardAlpha"/>
<feOffset dy="4"/>
<feGaussianBlur stdDeviation="9.5"/>
<feComposite in2="hardAlpha" operator="out"/>
<feColorMatrix type="matrix" values="0 0 0 0 0 0 0 0 0 0 0 0 0 0 0 0 0 0 0.07 0"/>
<feBlend mode="normal" in2="BackgroundImageFix" result="effect1_dropShadow_1946_142"/>
<feBlend mode="normal" in="SourceGraphic" in2="effect1_dropShadow_1946_142" result="shape"/>
</filter>
</defs>
</svg>
