<svg width="293" height="201" viewBox="0 0 293 201" fill="none" xmlns="http://www.w3.org/2000/svg">
<g filter="url(#filter0_d_1844_357)">
<rect x="17" y="13" width="259" height="167" rx="17" fill="white"/>
</g>
<rect x="35.1" y="51.1" width="64.8" height="90.8" stroke="#CECECE" stroke-width="0.2"/>
<line y1="-0.5" x2="110.451" y2="-0.5" transform="matrix(0.588499 -0.808498 0.126358 0.991985 35 141.149)" stroke="#CECECE"/>
<line y1="-0.5" x2="111.83" y2="-0.5" transform="matrix(0.581238 0.813733 -0.128725 0.99168 35 51)" stroke="#CECECE"/>
<rect x="111.1" y="52.1" width="64.8" height="90.8" stroke="#CECECE" stroke-width="0.2"/>
<line y1="-0.5" x2="110.451" y2="-0.5" transform="matrix(0.588499 -0.808498 0.126358 0.991985 111 142.149)" stroke="#CECECE"/>
<line y1="-0.5" x2="111.83" y2="-0.5" transform="matrix(0.581238 0.813733 -0.128725 0.99168 111 52)" stroke="#CECECE"/>
<rect x="187.1" y="52.1" width="64.8" height="90.8" stroke="#CECECE" stroke-width="0.2"/>
<line y1="-0.5" x2="110.451" y2="-0.5" transform="matrix(0.588499 -0.808498 0.126358 0.991985 187 142.149)" stroke="#CECECE"/>
<line y1="-0.5" x2="111.83" y2="-0.5" transform="matrix(0.581238 0.813733 -0.128725 0.99168 187 52)" stroke="#CECECE"/>
<defs>
<filter id="filter0_d_1844_357" x="0" y="0" width="293" height="201" filterUnits="userSpaceOnUse" color-interpolation-filters="sRGB">
<feFlood flood-opacity="0" result="BackgroundImageFix"/>
<feColorMatrix in="SourceAlpha" type="matrix" values="0 0 0 0 0 0 0 0 0 0 0 0 0 0 0 0 0 0 127 0" result="hardAlpha"/>
<feOffset dy="4"/>
<feGaussianBlur stdDeviation="8.5"/>
<feComposite in2="hardAlpha" operator="out"/>
<feColorMatrix type="matrix" values="0 0 0 0 0 0 0 0 0 0 0 0 0 0 0 0 0 0 0.25 0"/>
<feBlend mode="normal" in2="BackgroundImageFix" result="effect1_dropShadow_1844_357"/>
<feBlend mode="normal" in="SourceGraphic" in2="effect1_dropShadow_1844_357" result="shape"/>
</filter>
</defs>
</svg>
